<svg xmlns="http://www.w3.org/2000/svg" xmlns:xlink="http://www.w3.org/1999/xlink" width="500" zoomAndPan="magnify" viewBox="0 0 375 374.999991" height="500" preserveAspectRatio="xMidYMid meet" version="1.0"><defs><g/><clipPath id="c07d718544"><path d="M 49 191 L 326 191 L 326 371.53125 L 49 371.53125 Z M 49 191 " clip-rule="nonzero"/></clipPath><clipPath id="09eebe093b"><path d="M 0 3.28125 L 375 3.28125 L 375 200 L 0 200 Z M 0 3.28125 " clip-rule="nonzero"/></clipPath></defs><g fill="#000000" fill-opacity="1"><g transform="translate(67.760531, 135.778885)"><g><path d="M 2.640625 -2.640625 L 2.0625 -3.03125 L 2.03125 -3 C 2.0625 -2.613281 2.03125 -2.296875 1.9375 -2.046875 C 1.851562 -1.804688 1.6875 -1.5625 1.4375 -1.3125 C 1.09375 -0.96875 0.734375 -0.785156 0.359375 -0.765625 C -0.00390625 -0.753906 -0.34375 -0.90625 -0.65625 -1.21875 C -1.351562 -1.914062 -1.160156 -2.828125 -0.078125 -3.953125 L 0.46875 -4.5625 L 0.265625 -4.765625 C -0.00390625 -5.035156 -0.257812 -5.175781 -0.5 -5.1875 C -0.738281 -5.195312 -0.984375 -5.078125 -1.234375 -4.828125 C -1.515625 -4.546875 -1.75 -4.132812 -1.9375 -3.59375 L -2.5 -3.84375 C -2.414062 -4.09375 -2.296875 -4.34375 -2.140625 -4.59375 C -1.992188 -4.851562 -1.820312 -5.082031 -1.625 -5.28125 C -1.21875 -5.6875 -0.828125 -5.898438 -0.453125 -5.921875 C -0.078125 -5.941406 0.3125 -5.75 0.71875 -5.34375 L 3.03125 -3.03125 Z M 1.125 -1.84375 C 1.4375 -2.15625 1.597656 -2.492188 1.609375 -2.859375 C 1.617188 -3.222656 1.460938 -3.566406 1.140625 -3.890625 L 0.84375 -4.1875 L 0.328125 -3.640625 C -0.0664062 -3.222656 -0.296875 -2.863281 -0.359375 -2.5625 C -0.429688 -2.269531 -0.347656 -2.003906 -0.109375 -1.765625 C 0.078125 -1.578125 0.273438 -1.488281 0.484375 -1.5 C 0.703125 -1.519531 0.914062 -1.632812 1.125 -1.84375 Z M 1.125 -1.84375 "/></g></g><g transform="translate(71.299863, 132.239554)"><g><path d="M 1.8125 -3.65625 C 2.125 -3.34375 2.25 -2.984375 2.1875 -2.578125 C 2.125 -2.171875 1.878906 -1.753906 1.453125 -1.328125 C 1.003906 -0.878906 0.582031 -0.601562 0.1875 -0.5 L -0.28125 -0.96875 C -0.0507812 -1.050781 0.179688 -1.160156 0.421875 -1.296875 C 0.671875 -1.441406 0.878906 -1.597656 1.046875 -1.765625 C 1.316406 -2.035156 1.476562 -2.285156 1.53125 -2.515625 C 1.59375 -2.753906 1.535156 -2.960938 1.359375 -3.140625 C 1.234375 -3.265625 1.0625 -3.316406 0.84375 -3.296875 C 0.632812 -3.285156 0.300781 -3.175781 -0.15625 -2.96875 C -0.59375 -2.757812 -0.921875 -2.632812 -1.140625 -2.59375 C -1.359375 -2.550781 -1.554688 -2.550781 -1.734375 -2.59375 C -1.921875 -2.644531 -2.09375 -2.75 -2.25 -2.90625 C -2.519531 -3.175781 -2.625 -3.503906 -2.5625 -3.890625 C -2.5 -4.273438 -2.265625 -4.671875 -1.859375 -5.078125 C -1.503906 -5.429688 -1.078125 -5.710938 -0.578125 -5.921875 L -0.34375 -5.3125 C -0.8125 -5.113281 -1.1875 -4.875 -1.46875 -4.59375 C -1.71875 -4.34375 -1.867188 -4.117188 -1.921875 -3.921875 C -1.972656 -3.722656 -1.929688 -3.554688 -1.796875 -3.421875 C -1.703125 -3.328125 -1.597656 -3.273438 -1.484375 -3.265625 C -1.367188 -3.253906 -1.226562 -3.265625 -1.0625 -3.296875 C -0.90625 -3.335938 -0.625 -3.457031 -0.21875 -3.65625 C 0.320312 -3.90625 0.738281 -4.023438 1.03125 -4.015625 C 1.320312 -4.003906 1.582031 -3.882812 1.8125 -3.65625 Z M 1.8125 -3.65625 "/></g></g><g transform="translate(74.335795, 129.203621)"><g><path d="M 2.40625 -3.3125 L 2.390625 -3.296875 C 2.484375 -2.703125 2.296875 -2.171875 1.828125 -1.703125 C 1.390625 -1.265625 0.894531 -1.070312 0.34375 -1.125 C -0.207031 -1.175781 -0.765625 -1.484375 -1.328125 -2.046875 C -1.898438 -2.617188 -2.210938 -3.179688 -2.265625 -3.734375 C -2.328125 -4.296875 -2.140625 -4.796875 -1.703125 -5.234375 C -1.234375 -5.703125 -0.710938 -5.890625 -0.140625 -5.796875 L -0.09375 -5.84375 L -0.375 -6.0625 L -2 -7.6875 L -1.5 -8.1875 L 3.34375 -3.34375 L 2.9375 -2.9375 Z M 1.46875 -2.1875 C 1.820312 -2.539062 1.976562 -2.894531 1.9375 -3.25 C 1.90625 -3.613281 1.679688 -4.003906 1.265625 -4.421875 L 1.15625 -4.53125 C 0.664062 -5.019531 0.238281 -5.285156 -0.125 -5.328125 C -0.488281 -5.367188 -0.847656 -5.210938 -1.203125 -4.859375 C -1.503906 -4.554688 -1.617188 -4.207031 -1.546875 -3.8125 C -1.472656 -3.414062 -1.222656 -3.003906 -0.796875 -2.578125 C -0.359375 -2.140625 0.0507812 -1.890625 0.4375 -1.828125 C 0.820312 -1.765625 1.164062 -1.882812 1.46875 -2.1875 Z M 1.46875 -2.1875 "/></g></g><g transform="translate(78.235586, 125.303831)"><g><path d="M 1.8125 -3.65625 C 2.125 -3.34375 2.25 -2.984375 2.1875 -2.578125 C 2.125 -2.171875 1.878906 -1.753906 1.453125 -1.328125 C 1.003906 -0.878906 0.582031 -0.601562 0.1875 -0.5 L -0.28125 -0.96875 C -0.0507812 -1.050781 0.179688 -1.160156 0.421875 -1.296875 C 0.671875 -1.441406 0.878906 -1.597656 1.046875 -1.765625 C 1.316406 -2.035156 1.476562 -2.285156 1.53125 -2.515625 C 1.59375 -2.753906 1.535156 -2.960938 1.359375 -3.140625 C 1.234375 -3.265625 1.0625 -3.316406 0.84375 -3.296875 C 0.632812 -3.285156 0.300781 -3.175781 -0.15625 -2.96875 C -0.59375 -2.757812 -0.921875 -2.632812 -1.140625 -2.59375 C -1.359375 -2.550781 -1.554688 -2.550781 -1.734375 -2.59375 C -1.921875 -2.644531 -2.09375 -2.75 -2.25 -2.90625 C -2.519531 -3.175781 -2.625 -3.503906 -2.5625 -3.890625 C -2.5 -4.273438 -2.265625 -4.671875 -1.859375 -5.078125 C -1.503906 -5.429688 -1.078125 -5.710938 -0.578125 -5.921875 L -0.34375 -5.3125 C -0.8125 -5.113281 -1.1875 -4.875 -1.46875 -4.59375 C -1.71875 -4.34375 -1.867188 -4.117188 -1.921875 -3.921875 C -1.972656 -3.722656 -1.929688 -3.554688 -1.796875 -3.421875 C -1.703125 -3.328125 -1.597656 -3.273438 -1.484375 -3.265625 C -1.367188 -3.253906 -1.226562 -3.265625 -1.0625 -3.296875 C -0.90625 -3.335938 -0.625 -3.457031 -0.21875 -3.65625 C 0.320312 -3.90625 0.738281 -4.023438 1.03125 -4.015625 C 1.320312 -4.003906 1.582031 -3.882812 1.8125 -3.65625 Z M 1.8125 -3.65625 "/></g></g><g transform="translate(81.271518, 122.267898)"><g><path d="M 2.640625 -2.640625 L 2.0625 -3.03125 L 2.03125 -3 C 2.0625 -2.613281 2.03125 -2.296875 1.9375 -2.046875 C 1.851562 -1.804688 1.6875 -1.5625 1.4375 -1.3125 C 1.09375 -0.96875 0.734375 -0.785156 0.359375 -0.765625 C -0.00390625 -0.753906 -0.34375 -0.90625 -0.65625 -1.21875 C -1.351562 -1.914062 -1.160156 -2.828125 -0.078125 -3.953125 L 0.46875 -4.5625 L 0.265625 -4.765625 C -0.00390625 -5.035156 -0.257812 -5.175781 -0.5 -5.1875 C -0.738281 -5.195312 -0.984375 -5.078125 -1.234375 -4.828125 C -1.515625 -4.546875 -1.75 -4.132812 -1.9375 -3.59375 L -2.5 -3.84375 C -2.414062 -4.09375 -2.296875 -4.34375 -2.140625 -4.59375 C -1.992188 -4.851562 -1.820312 -5.082031 -1.625 -5.28125 C -1.21875 -5.6875 -0.828125 -5.898438 -0.453125 -5.921875 C -0.078125 -5.941406 0.3125 -5.75 0.71875 -5.34375 L 3.03125 -3.03125 Z M 1.125 -1.84375 C 1.4375 -2.15625 1.597656 -2.492188 1.609375 -2.859375 C 1.617188 -3.222656 1.460938 -3.566406 1.140625 -3.890625 L 0.84375 -4.1875 L 0.328125 -3.640625 C -0.0664062 -3.222656 -0.296875 -2.863281 -0.359375 -2.5625 C -0.429688 -2.269531 -0.347656 -2.003906 -0.109375 -1.765625 C 0.078125 -1.578125 0.273438 -1.488281 0.484375 -1.5 C 0.703125 -1.519531 0.914062 -1.632812 1.125 -1.84375 Z M 1.125 -1.84375 "/></g></g><g transform="translate(84.81085, 118.728567)"><g><path d="M 2.40625 -3.3125 L 2.390625 -3.296875 C 2.484375 -2.703125 2.296875 -2.171875 1.828125 -1.703125 C 1.390625 -1.265625 0.894531 -1.070312 0.34375 -1.125 C -0.207031 -1.175781 -0.765625 -1.484375 -1.328125 -2.046875 C -1.898438 -2.617188 -2.210938 -3.179688 -2.265625 -3.734375 C -2.328125 -4.296875 -2.140625 -4.796875 -1.703125 -5.234375 C -1.234375 -5.703125 -0.710938 -5.890625 -0.140625 -5.796875 L -0.09375 -5.84375 L -0.375 -6.0625 L -2 -7.6875 L -1.5 -8.1875 L 3.34375 -3.34375 L 2.9375 -2.9375 Z M 1.46875 -2.1875 C 1.820312 -2.539062 1.976562 -2.894531 1.9375 -3.25 C 1.90625 -3.613281 1.679688 -4.003906 1.265625 -4.421875 L 1.15625 -4.53125 C 0.664062 -5.019531 0.238281 -5.285156 -0.125 -5.328125 C -0.488281 -5.367188 -0.847656 -5.210938 -1.203125 -4.859375 C -1.503906 -4.554688 -1.617188 -4.207031 -1.546875 -3.8125 C -1.472656 -3.414062 -1.222656 -3.003906 -0.796875 -2.578125 C -0.359375 -2.140625 0.0507812 -1.890625 0.4375 -1.828125 C 0.820312 -1.765625 1.164062 -1.882812 1.46875 -2.1875 Z M 1.46875 -2.1875 "/></g></g><g transform="translate(88.71064, 114.828777)"><g><path d="M 2.640625 -2.640625 L 2.0625 -3.03125 L 2.03125 -3 C 2.0625 -2.613281 2.03125 -2.296875 1.9375 -2.046875 C 1.851562 -1.804688 1.6875 -1.5625 1.4375 -1.3125 C 1.09375 -0.96875 0.734375 -0.785156 0.359375 -0.765625 C -0.00390625 -0.753906 -0.34375 -0.90625 -0.65625 -1.21875 C -1.351562 -1.914062 -1.160156 -2.828125 -0.078125 -3.953125 L 0.46875 -4.5625 L 0.265625 -4.765625 C -0.00390625 -5.035156 -0.257812 -5.175781 -0.5 -5.1875 C -0.738281 -5.195312 -0.984375 -5.078125 -1.234375 -4.828125 C -1.515625 -4.546875 -1.75 -4.132812 -1.9375 -3.59375 L -2.5 -3.84375 C -2.414062 -4.09375 -2.296875 -4.34375 -2.140625 -4.59375 C -1.992188 -4.851562 -1.820312 -5.082031 -1.625 -5.28125 C -1.21875 -5.6875 -0.828125 -5.898438 -0.453125 -5.921875 C -0.078125 -5.941406 0.3125 -5.75 0.71875 -5.34375 L 3.03125 -3.03125 Z M 1.125 -1.84375 C 1.4375 -2.15625 1.597656 -2.492188 1.609375 -2.859375 C 1.617188 -3.222656 1.460938 -3.566406 1.140625 -3.890625 L 0.84375 -4.1875 L 0.328125 -3.640625 C -0.0664062 -3.222656 -0.296875 -2.863281 -0.359375 -2.5625 C -0.429688 -2.269531 -0.347656 -2.003906 -0.109375 -1.765625 C 0.078125 -1.578125 0.273438 -1.488281 0.484375 -1.5 C 0.703125 -1.519531 0.914062 -1.632812 1.125 -1.84375 Z M 1.125 -1.84375 "/></g></g><g transform="translate(92.249972, 111.289445)"><g><path d="M 1.8125 -3.65625 C 2.125 -3.34375 2.25 -2.984375 2.1875 -2.578125 C 2.125 -2.171875 1.878906 -1.753906 1.453125 -1.328125 C 1.003906 -0.878906 0.582031 -0.601562 0.1875 -0.5 L -0.28125 -0.96875 C -0.0507812 -1.050781 0.179688 -1.160156 0.421875 -1.296875 C 0.671875 -1.441406 0.878906 -1.597656 1.046875 -1.765625 C 1.316406 -2.035156 1.476562 -2.285156 1.53125 -2.515625 C 1.59375 -2.753906 1.535156 -2.960938 1.359375 -3.140625 C 1.234375 -3.265625 1.0625 -3.316406 0.84375 -3.296875 C 0.632812 -3.285156 0.300781 -3.175781 -0.15625 -2.96875 C -0.59375 -2.757812 -0.921875 -2.632812 -1.140625 -2.59375 C -1.359375 -2.550781 -1.554688 -2.550781 -1.734375 -2.59375 C -1.921875 -2.644531 -2.09375 -2.75 -2.25 -2.90625 C -2.519531 -3.175781 -2.625 -3.503906 -2.5625 -3.890625 C -2.5 -4.273438 -2.265625 -4.671875 -1.859375 -5.078125 C -1.503906 -5.429688 -1.078125 -5.710938 -0.578125 -5.921875 L -0.34375 -5.3125 C -0.8125 -5.113281 -1.1875 -4.875 -1.46875 -4.59375 C -1.71875 -4.34375 -1.867188 -4.117188 -1.921875 -3.921875 C -1.972656 -3.722656 -1.929688 -3.554688 -1.796875 -3.421875 C -1.703125 -3.328125 -1.597656 -3.273438 -1.484375 -3.265625 C -1.367188 -3.253906 -1.226562 -3.265625 -1.0625 -3.296875 C -0.90625 -3.335938 -0.625 -3.457031 -0.21875 -3.65625 C 0.320312 -3.90625 0.738281 -4.023438 1.03125 -4.015625 C 1.320312 -4.003906 1.582031 -3.882812 1.8125 -3.65625 Z M 1.8125 -3.65625 "/></g></g><g transform="translate(95.285904, 108.253513)"><g><path d="M 2.40625 -3.3125 L 2.390625 -3.296875 C 2.484375 -2.703125 2.296875 -2.171875 1.828125 -1.703125 C 1.390625 -1.265625 0.894531 -1.070312 0.34375 -1.125 C -0.207031 -1.175781 -0.765625 -1.484375 -1.328125 -2.046875 C -1.898438 -2.617188 -2.210938 -3.179688 -2.265625 -3.734375 C -2.328125 -4.296875 -2.140625 -4.796875 -1.703125 -5.234375 C -1.234375 -5.703125 -0.710938 -5.890625 -0.140625 -5.796875 L -0.09375 -5.84375 L -0.375 -6.0625 L -2 -7.6875 L -1.5 -8.1875 L 3.34375 -3.34375 L 2.9375 -2.9375 Z M 1.46875 -2.1875 C 1.820312 -2.539062 1.976562 -2.894531 1.9375 -3.25 C 1.90625 -3.613281 1.679688 -4.003906 1.265625 -4.421875 L 1.15625 -4.53125 C 0.664062 -5.019531 0.238281 -5.285156 -0.125 -5.328125 C -0.488281 -5.367188 -0.847656 -5.210938 -1.203125 -4.859375 C -1.503906 -4.554688 -1.617188 -4.207031 -1.546875 -3.8125 C -1.472656 -3.414062 -1.222656 -3.003906 -0.796875 -2.578125 C -0.359375 -2.140625 0.0507812 -1.890625 0.4375 -1.828125 C 0.820312 -1.765625 1.164062 -1.882812 1.46875 -2.1875 Z M 1.46875 -2.1875 "/></g></g><g transform="translate(99.185694, 104.353722)"><g><path d="M 2.640625 -2.640625 L 2.0625 -3.03125 L 2.03125 -3 C 2.0625 -2.613281 2.03125 -2.296875 1.9375 -2.046875 C 1.851562 -1.804688 1.6875 -1.5625 1.4375 -1.3125 C 1.09375 -0.96875 0.734375 -0.785156 0.359375 -0.765625 C -0.00390625 -0.753906 -0.34375 -0.90625 -0.65625 -1.21875 C -1.351562 -1.914062 -1.160156 -2.828125 -0.078125 -3.953125 L 0.46875 -4.5625 L 0.265625 -4.765625 C -0.00390625 -5.035156 -0.257812 -5.175781 -0.5 -5.1875 C -0.738281 -5.195312 -0.984375 -5.078125 -1.234375 -4.828125 C -1.515625 -4.546875 -1.75 -4.132812 -1.9375 -3.59375 L -2.5 -3.84375 C -2.414062 -4.09375 -2.296875 -4.34375 -2.140625 -4.59375 C -1.992188 -4.851562 -1.820312 -5.082031 -1.625 -5.28125 C -1.21875 -5.6875 -0.828125 -5.898438 -0.453125 -5.921875 C -0.078125 -5.941406 0.3125 -5.75 0.71875 -5.34375 L 3.03125 -3.03125 Z M 1.125 -1.84375 C 1.4375 -2.15625 1.597656 -2.492188 1.609375 -2.859375 C 1.617188 -3.222656 1.460938 -3.566406 1.140625 -3.890625 L 0.84375 -4.1875 L 0.328125 -3.640625 C -0.0664062 -3.222656 -0.296875 -2.863281 -0.359375 -2.5625 C -0.429688 -2.269531 -0.347656 -2.003906 -0.109375 -1.765625 C 0.078125 -1.578125 0.273438 -1.488281 0.484375 -1.5 C 0.703125 -1.519531 0.914062 -1.632812 1.125 -1.84375 Z M 1.125 -1.84375 "/></g></g><g transform="translate(102.725026, 100.814391)"><g><path d="M 1.8125 -3.65625 C 2.125 -3.34375 2.25 -2.984375 2.1875 -2.578125 C 2.125 -2.171875 1.878906 -1.753906 1.453125 -1.328125 C 1.003906 -0.878906 0.582031 -0.601562 0.1875 -0.5 L -0.28125 -0.96875 C -0.0507812 -1.050781 0.179688 -1.160156 0.421875 -1.296875 C 0.671875 -1.441406 0.878906 -1.597656 1.046875 -1.765625 C 1.316406 -2.035156 1.476562 -2.285156 1.53125 -2.515625 C 1.59375 -2.753906 1.535156 -2.960938 1.359375 -3.140625 C 1.234375 -3.265625 1.0625 -3.316406 0.84375 -3.296875 C 0.632812 -3.285156 0.300781 -3.175781 -0.15625 -2.96875 C -0.59375 -2.757812 -0.921875 -2.632812 -1.140625 -2.59375 C -1.359375 -2.550781 -1.554688 -2.550781 -1.734375 -2.59375 C -1.921875 -2.644531 -2.09375 -2.75 -2.25 -2.90625 C -2.519531 -3.175781 -2.625 -3.503906 -2.5625 -3.890625 C -2.5 -4.273438 -2.265625 -4.671875 -1.859375 -5.078125 C -1.503906 -5.429688 -1.078125 -5.710938 -0.578125 -5.921875 L -0.34375 -5.3125 C -0.8125 -5.113281 -1.1875 -4.875 -1.46875 -4.59375 C -1.71875 -4.34375 -1.867188 -4.117188 -1.921875 -3.921875 C -1.972656 -3.722656 -1.929688 -3.554688 -1.796875 -3.421875 C -1.703125 -3.328125 -1.597656 -3.273438 -1.484375 -3.265625 C -1.367188 -3.253906 -1.226562 -3.265625 -1.0625 -3.296875 C -0.90625 -3.335938 -0.625 -3.457031 -0.21875 -3.65625 C 0.320312 -3.90625 0.738281 -4.023438 1.03125 -4.015625 C 1.320312 -4.003906 1.582031 -3.882812 1.8125 -3.65625 Z M 1.8125 -3.65625 "/></g></g><g transform="translate(105.760958, 97.778458)"><g><path d="M 2.40625 -3.3125 L 2.390625 -3.296875 C 2.484375 -2.703125 2.296875 -2.171875 1.828125 -1.703125 C 1.390625 -1.265625 0.894531 -1.070312 0.34375 -1.125 C -0.207031 -1.175781 -0.765625 -1.484375 -1.328125 -2.046875 C -1.898438 -2.617188 -2.210938 -3.179688 -2.265625 -3.734375 C -2.328125 -4.296875 -2.140625 -4.796875 -1.703125 -5.234375 C -1.234375 -5.703125 -0.710938 -5.890625 -0.140625 -5.796875 L -0.09375 -5.84375 L -0.375 -6.0625 L -2 -7.6875 L -1.5 -8.1875 L 3.34375 -3.34375 L 2.9375 -2.9375 Z M 1.46875 -2.1875 C 1.820312 -2.539062 1.976562 -2.894531 1.9375 -3.25 C 1.90625 -3.613281 1.679688 -4.003906 1.265625 -4.421875 L 1.15625 -4.53125 C 0.664062 -5.019531 0.238281 -5.285156 -0.125 -5.328125 C -0.488281 -5.367188 -0.847656 -5.210938 -1.203125 -4.859375 C -1.503906 -4.554688 -1.617188 -4.207031 -1.546875 -3.8125 C -1.472656 -3.414062 -1.222656 -3.003906 -0.796875 -2.578125 C -0.359375 -2.140625 0.0507812 -1.890625 0.4375 -1.828125 C 0.820312 -1.765625 1.164062 -1.882812 1.46875 -2.1875 Z M 1.46875 -2.1875 "/></g></g></g><path fill="#ffffff" d="M 316.484375 103.667969 L 303.339844 103.667969 L 303.339844 19.203125 L 259.519531 19.203125 L 259.519531 47.183594 L 246.378906 47.183594 L 246.378906 6.058594 L 316.484375 6.058594 L 316.484375 103.667969 " fill-opacity="1" fill-rule="nonzero"/><path fill="#ffffff" d="M 280.800781 340.878906 L 267.660156 340.878906 L 267.660156 234.835938 L 211.742188 234.835938 L 211.742188 340.878906 L 198.601562 340.878906 L 198.601562 221.695312 L 280.800781 221.695312 L 280.800781 340.878906 " fill-opacity="1" fill-rule="nonzero"/><g clip-path="url(#c07d718544)"><path fill="#ffffff" d="M 325.164062 371.734375 L 49.835938 371.734375 L 49.835938 191.933594 L 62.976562 191.933594 L 62.976562 358.59375 L 312.023438 358.59375 L 312.023438 191.933594 L 325.164062 191.933594 L 325.164062 371.734375 " fill-opacity="1" fill-rule="nonzero"/></g><g clip-path="url(#09eebe093b)"><path fill="#ffffff" d="M 365.726562 199.359375 L 187.5 21.902344 L 9.273438 199.359375 L 0 190.046875 L 187.5 3.355469 L 375 190.046875 L 365.726562 199.359375 " fill-opacity="1" fill-rule="nonzero"/></g><path fill="#ffffff" d="M 128.394531 281.398438 L 128.394531 262.222656 L 152.828125 262.222656 L 152.828125 281.398438 Z M 94.109375 262.222656 L 118.539062 262.222656 L 118.539062 281.398438 L 94.109375 281.398438 Z M 118.539062 233.191406 L 118.539062 252.371094 L 94.109375 252.371094 L 94.109375 233.191406 Z M 152.828125 252.371094 L 128.394531 252.371094 L 128.394531 233.191406 L 152.828125 233.191406 Z M 84.253906 223.335938 L 84.253906 291.253906 L 162.683594 291.253906 L 162.683594 223.335938 L 84.253906 223.335938 " fill-opacity="1" fill-rule="nonzero"/></svg>