<svg xmlns="http://www.w3.org/2000/svg" xmlns:xlink="http://www.w3.org/1999/xlink" width="500" zoomAndPan="magnify" viewBox="0 0 375 374.999991" height="500" preserveAspectRatio="xMidYMid meet" version="1.0"><defs><g/><clipPath id="c50f8ca071"><path d="M 17.726562 38 L 357 38 L 357 375 L 17.726562 375 Z M 17.726562 38 " clip-rule="nonzero"/></clipPath></defs><g fill="#000000" fill-opacity="1"><g transform="translate(185.36718, 193.124987)"><g><path d="M 1.1875 -0.828125 C 1.1875 -1.179688 1.265625 -1.445312 1.421875 -1.625 C 1.585938 -1.800781 1.816406 -1.890625 2.109375 -1.890625 C 2.410156 -1.890625 2.644531 -1.800781 2.8125 -1.625 C 2.988281 -1.445312 3.078125 -1.179688 3.078125 -0.828125 C 3.078125 -0.492188 2.988281 -0.234375 2.8125 -0.046875 C 2.644531 0.140625 2.410156 0.234375 2.109375 0.234375 C 1.847656 0.234375 1.628906 0.148438 1.453125 -0.015625 C 1.273438 -0.179688 1.1875 -0.453125 1.1875 -0.828125 Z M 1.1875 -0.828125 "/></g></g></g><path fill="#ffffff" d="M 187.347656 34.097656 C 196.816406 34.097656 204.519531 26.449219 204.519531 17.046875 C 204.519531 7.660156 196.816406 0.0234375 187.347656 0.0234375 C 177.878906 0.0234375 170.175781 7.660156 170.175781 17.046875 C 170.175781 26.449219 177.878906 34.097656 187.347656 34.097656 Z M 187.347656 34.097656 " fill-opacity="1" fill-rule="nonzero"/><g clip-path="url(#c50f8ca071)"><path fill="#ffffff" d="M 356.351562 215.566406 C 355.789062 214.832031 354.917969 214.402344 353.992188 214.402344 L 342.222656 214.402344 L 322.015625 116.019531 C 331.261719 113.152344 340.632812 107.714844 349.9375 99.753906 C 352.152344 97.816406 353.425781 95.039062 353.425781 92.125 C 353.425781 89.351562 352.257812 86.664062 350.214844 84.746094 C 346.390625 81.167969 340.496094 81.070312 336.507812 84.519531 C 325.183594 94.324219 314.617188 98.992188 305.113281 98.378906 C 294.71875 97.699219 286.226562 90.613281 275.410156 81.585938 C 262.1875 70.546875 245.734375 56.800781 219 49.53125 C 218.339844 49.351562 217.667969 49.210938 217.007812 49.039062 L 221.539062 43.550781 C 222.273438 42.660156 222.425781 41.429688 221.9375 40.386719 C 221.445312 39.347656 220.398438 38.683594 219.246094 38.683594 L 155.449219 38.683594 C 154.296875 38.683594 153.25 39.347656 152.757812 40.386719 C 152.265625 41.429688 152.417969 42.660156 153.152344 43.550781 L 157.683594 49.039062 C 157.027344 49.207031 156.359375 49.347656 155.710938 49.527344 C 128.957031 56.800781 112.503906 70.546875 99.214844 81.640625 C 88.46875 90.613281 79.976562 97.699219 69.585938 98.378906 C 60.074219 98.980469 49.507812 94.320312 38.183594 84.511719 C 34.191406 81.074219 28.296875 81.167969 24.46875 84.75 C 22.433594 86.664062 21.269531 89.351562 21.269531 92.125 C 21.269531 95.039062 22.539062 97.816406 24.78125 99.769531 C 34.066406 107.71875 43.4375 113.152344 52.679688 116.019531 L 32.472656 214.402344 L 20.703125 214.402344 C 19.777344 214.402344 18.90625 214.832031 18.34375 215.566406 C 17.78125 216.304688 17.589844 217.253906 17.832031 218.152344 C 22.082031 233.96875 34.167969 246.921875 49.628906 252.46875 L 49.628906 372 C 49.628906 372.949219 50.082031 373.84375 50.851562 374.402344 C 51.367188 374.777344 51.980469 374.976562 52.605469 374.976562 C 52.910156 374.976562 53.214844 374.929688 53.515625 374.835938 C 96.664062 361.027344 143.453125 361.054688 186.429688 374.828125 C 186.429688 374.828125 186.4375 374.832031 186.441406 374.832031 C 186.441406 374.832031 186.445312 374.832031 186.445312 374.832031 C 186.707031 374.917969 186.984375 374.953125 187.257812 374.960938 C 187.292969 374.960938 187.320312 374.976562 187.351562 374.976562 C 187.40625 374.976562 187.460938 374.953125 187.515625 374.949219 C 187.714844 374.9375 187.90625 374.90625 188.101562 374.855469 C 188.15625 374.839844 188.203125 374.847656 188.257812 374.832031 C 231.234375 361.054688 278.03125 361.023438 321.1875 374.832031 C 322.097656 375.125 323.082031 374.960938 323.851562 374.402344 C 324.617188 373.839844 325.070312 372.949219 325.070312 371.996094 L 325.070312 252.46875 C 340.535156 246.921875 352.621094 233.96875 356.871094 218.152344 C 357.105469 217.253906 356.917969 216.300781 356.351562 215.566406 Z M 261.800781 214.402344 C 260.878906 214.402344 260.003906 214.832031 259.441406 215.566406 C 258.878906 216.300781 258.691406 217.253906 258.929688 218.148438 C 264.824219 240.140625 284.960938 255.496094 307.902344 255.496094 C 311.6875 255.496094 315.445312 255.070312 319.121094 254.246094 L 319.121094 339.839844 C 277.199219 327.253906 232.125 327.324219 190.328125 339.882812 L 190.328125 148.890625 C 194.332031 146.710938 198.46875 144.6875 202.691406 142.929688 C 202.695312 142.929688 202.699219 142.929688 202.703125 142.925781 C 202.707031 142.925781 202.710938 142.921875 202.710938 142.921875 C 219.34375 135.992188 236.84375 132.472656 254.722656 132.472656 C 266.480469 132.472656 278.230469 134.058594 289.710938 137.140625 L 273.578125 214.402344 Z M 55.578125 254.246094 C 59.253906 255.070312 63.011719 255.496094 66.796875 255.496094 C 89.734375 255.496094 109.871094 240.140625 115.769531 218.148438 C 116.007812 217.253906 115.820312 216.300781 115.257812 215.566406 C 114.695312 214.828125 113.820312 214.402344 112.894531 214.402344 L 101.121094 214.402344 L 85 137.1875 C 107.132812 131.25 130.308594 131.023438 152.472656 136.539062 L 152.472656 256.03125 C 152.472656 257.234375 153.199219 258.316406 154.308594 258.78125 C 154.675781 258.933594 155.0625 259.007812 155.449219 259.007812 C 156.222656 259.007812 156.980469 258.707031 157.546875 258.140625 L 171.402344 244.371094 L 184.371094 257.269531 L 184.371094 339.835938 C 142.605469 327.28125 97.496094 327.253906 55.578125 339.835938 Z M 290.925781 131.308594 C 279.050781 128.148438 266.886719 126.527344 254.71875 126.527344 C 237.507812 126.527344 220.648438 129.683594 204.511719 135.839844 L 204.433594 66.78125 C 207.53125 67.363281 210.566406 68.007812 213.402344 68.785156 C 235.734375 74.886719 249.660156 86.496094 261.976562 96.761719 C 272.050781 105.1875 281.644531 113.117188 293.996094 116.601562 Z M 187.347656 143.730469 C 183.707031 141.742188 179.949219 139.917969 176.132812 138.265625 L 176.210938 71.496094 L 185.054688 82.207031 C 185.617188 82.890625 186.460938 83.289062 187.347656 83.289062 C 188.234375 83.289062 189.078125 82.890625 189.640625 82.207031 L 198.488281 71.496094 L 198.5625 138.265625 C 194.742188 139.917969 190.988281 141.742188 187.347656 143.730469 Z M 170.183594 135.882812 C 165.609375 134.144531 160.953125 132.558594 156.214844 131.300781 C 132.496094 124.964844 107.550781 125.039062 83.78125 131.359375 L 80.703125 116.601562 C 93.054688 113.113281 102.652344 105.183594 112.75 96.738281 C 125.039062 86.496094 138.964844 74.882812 161.292969 68.78125 C 164.132812 68.007812 167.167969 67.359375 170.265625 66.777344 Z M 299.804688 117.902344 C 301.09375 118.09375 302.40625 118.246094 303.753906 118.332031 C 304.765625 118.394531 305.78125 118.429688 306.828125 118.429688 C 309.945312 118.429688 313.097656 118.117188 316.246094 117.503906 L 336.148438 214.398438 L 279.660156 214.398438 Z M 217.425781 55.269531 C 242.925781 62.203125 258.824219 75.480469 271.667969 86.210938 C 283.253906 95.878906 292.398438 103.511719 304.734375 104.320312 C 315.871094 105.019531 327.863281 99.878906 340.40625 89.023438 C 342.085938 87.566406 344.5625 87.597656 346.15625 89.085938 C 347.007812 89.886719 347.480469 90.96875 347.480469 92.121094 C 347.480469 93.332031 346.964844 94.449219 346.050781 95.246094 C 336.550781 103.378906 327.054688 108.695312 317.8125 111.054688 C 313.21875 112.238281 308.488281 112.664062 304.140625 112.398438 C 302.042969 112.257812 300.015625 111.976562 298.117188 111.5625 C 285.769531 108.890625 276.070312 100.777344 265.765625 92.164062 C 253.011719 81.53125 238.558594 69.480469 214.976562 63.035156 C 212.421875 62.34375 209.722656 61.746094 206.972656 61.199219 L 212.816406 54.125 C 214.351562 54.488281 215.894531 54.84375 217.425781 55.269531 Z M 27.21875 92.125 C 27.21875 90.96875 27.691406 89.890625 28.539062 89.089844 C 30.136719 87.597656 32.609375 87.570312 34.289062 89.015625 C 46.835938 99.878906 58.839844 105.023438 69.96875 104.316406 C 82.300781 103.511719 91.445312 95.875 103.097656 86.152344 C 115.871094 75.480469 131.773438 62.199219 157.285156 55.265625 C 158.808594 54.839844 160.347656 54.484375 161.886719 54.125 L 167.730469 61.199219 C 164.976562 61.746094 162.28125 62.34375 159.722656 63.035156 C 136.144531 69.484375 121.691406 81.53125 108.902344 92.195312 C 98.632812 100.78125 88.933594 108.890625 76.585938 111.566406 C 74.691406 111.976562 72.664062 112.257812 70.570312 112.398438 C 66.167969 112.667969 61.488281 112.242188 56.882812 111.054688 C 47.644531 108.699219 38.148438 103.378906 28.671875 95.269531 C 27.734375 94.453125 27.21875 93.335938 27.21875 92.125 Z M 58.449219 117.507812 C 61.597656 118.121094 64.753906 118.429688 67.871094 118.429688 C 68.917969 118.429688 69.929688 118.398438 70.953125 118.332031 C 72.292969 118.246094 73.605469 118.09375 74.890625 117.902344 L 95.035156 214.398438 L 38.546875 214.398438 Z M 24.769531 220.351562 L 108.835938 220.351562 C 102.476562 237.722656 85.71875 249.546875 66.800781 249.546875 C 62.40625 249.546875 58.054688 248.910156 53.855469 247.648438 C 53.734375 247.589844 53.609375 247.542969 53.480469 247.503906 C 40.21875 243.414062 29.515625 233.1875 24.769531 220.351562 Z M 55.578125 367.960938 L 55.578125 346.09375 C 97.46875 333.152344 142.636719 333.179688 184.371094 346.09375 L 184.371094 353.953125 C 163.480469 347.648438 141.84375 344.414062 119.976562 344.414062 C 114.121094 344.414062 108.074219 344.65625 102.003906 345.136719 C 100.367188 345.269531 99.144531 346.699219 99.273438 348.339844 C 99.402344 349.976562 100.847656 351.1875 102.476562 351.070312 C 108.386719 350.601562 114.277344 350.367188 119.976562 350.367188 C 141.859375 350.367188 163.507812 353.683594 184.371094 360.167969 L 184.371094 367.960938 C 142.609375 355.402344 97.5 355.375 55.578125 367.960938 Z M 190.324219 368.003906 L 190.324219 360.167969 C 211.191406 353.683594 232.835938 350.367188 254.71875 350.367188 C 260.417969 350.367188 266.308594 350.605469 272.222656 351.070312 C 273.882812 351.191406 275.292969 349.976562 275.421875 348.339844 C 275.550781 346.699219 274.328125 345.269531 272.691406 345.136719 C 266.621094 344.65625 260.574219 344.414062 254.71875 344.414062 C 232.855469 344.414062 211.21875 347.648438 190.324219 353.953125 L 190.324219 346.09375 C 232.058594 333.175781 277.230469 333.152344 319.117188 346.09375 L 319.117188 367.960938 C 277.195312 355.375 232.109375 355.449219 190.324219 368.003906 Z M 321.214844 247.507812 C 321.085938 247.546875 320.960938 247.59375 320.84375 247.648438 C 316.644531 248.910156 312.289062 249.546875 307.898438 249.546875 C 288.980469 249.546875 272.222656 237.726562 265.863281 220.355469 L 349.929688 220.355469 C 345.179688 233.1875 334.476562 243.414062 321.214844 247.507812 Z M 321.214844 247.507812 " fill-opacity="1" fill-rule="nonzero"/></g></svg>