<svg xmlns="http://www.w3.org/2000/svg" xmlns:xlink="http://www.w3.org/1999/xlink" width="500" zoomAndPan="magnify" viewBox="0 0 375 281.25" height="375" preserveAspectRatio="xMidYMid meet" version="1.0"><defs><g/><clipPath id="b7a45423af"><path d="M 0.0742188 4 L 2 4 L 2 5 L 0.0742188 5 Z M 0.0742188 4 " clip-rule="nonzero"/></clipPath><clipPath id="bd87fb9a78"><path d="M 2 2 L 3.664062 2 L 3.664062 5 L 2 5 Z M 2 2 " clip-rule="nonzero"/></clipPath><clipPath id="2bb521e2de"><rect x="0" width="4" y="0" height="6"/></clipPath><clipPath id="1eaa1ebb32"><path d="M 2.65625 111 L 195 111 L 195 280.503906 L 2.65625 280.503906 Z M 2.65625 111 " clip-rule="nonzero"/></clipPath><clipPath id="89d1e18653"><path d="M 180 111 L 372.167969 111 L 372.167969 280.503906 L 180 280.503906 Z M 180 111 " clip-rule="nonzero"/></clipPath></defs><g transform="matrix(1, 0, 0, 1, 190, 264)"><g clip-path="url(#2bb521e2de)"><g clip-path="url(#b7a45423af)"><g fill="#ffffff" fill-opacity="1"><g transform="translate(0.156755, 4.210472)"><g/></g><g transform="translate(1.019043, 4.210472)"><g/></g></g></g><g clip-path="url(#bd87fb9a78)"><g fill="#ffffff" fill-opacity="1"><g transform="translate(1.88133, 4.210472)"><g><path d="M 1.421875 -0.484375 C 1.421875 -0.316406 1.359375 -0.1875 1.234375 -0.09375 C 1.117188 -0.0078125 0.945312 0.03125 0.71875 0.03125 C 0.488281 0.03125 0.304688 -0.00390625 0.171875 -0.078125 L 0.171875 -0.328125 C 0.253906 -0.285156 0.34375 -0.25 0.4375 -0.21875 C 0.539062 -0.195312 0.640625 -0.1875 0.734375 -0.1875 C 0.867188 -0.1875 0.972656 -0.207031 1.046875 -0.25 C 1.128906 -0.300781 1.171875 -0.375 1.171875 -0.46875 C 1.171875 -0.53125 1.140625 -0.585938 1.078125 -0.640625 C 1.015625 -0.691406 0.898438 -0.75 0.734375 -0.8125 C 0.566406 -0.875 0.445312 -0.925781 0.375 -0.96875 C 0.300781 -1.019531 0.25 -1.070312 0.21875 -1.125 C 0.1875 -1.1875 0.171875 -1.257812 0.171875 -1.34375 C 0.171875 -1.476562 0.226562 -1.585938 0.34375 -1.671875 C 0.46875 -1.765625 0.628906 -1.8125 0.828125 -1.8125 C 1.023438 -1.8125 1.210938 -1.769531 1.390625 -1.6875 L 1.296875 -1.46875 C 1.117188 -1.539062 0.957031 -1.578125 0.8125 -1.578125 C 0.6875 -1.578125 0.585938 -1.554688 0.515625 -1.515625 C 0.453125 -1.472656 0.421875 -1.421875 0.421875 -1.359375 C 0.421875 -1.304688 0.429688 -1.265625 0.453125 -1.234375 C 0.484375 -1.203125 0.523438 -1.171875 0.578125 -1.140625 C 0.628906 -1.109375 0.734375 -1.0625 0.890625 -1 C 1.097656 -0.925781 1.238281 -0.847656 1.3125 -0.765625 C 1.382812 -0.691406 1.421875 -0.597656 1.421875 -0.484375 Z M 1.421875 -0.484375 "/></g></g></g></g></g></g><path fill="#ffffff" d="M 101.386719 13.792969 C 74.539062 13.792969 52.691406 35.636719 52.691406 62.496094 C 52.691406 89.34375 74.539062 111.1875 101.386719 111.1875 C 128.238281 111.1875 150.078125 89.34375 150.078125 62.496094 C 150.078125 35.636719 128.238281 13.792969 101.386719 13.792969 Z M 101.386719 124.96875 C 66.9375 124.96875 38.910156 96.949219 38.910156 62.496094 C 38.910156 28.042969 66.9375 0.0117188 101.386719 0.0117188 C 135.832031 0.0117188 163.859375 28.042969 163.859375 62.496094 C 163.859375 96.949219 135.832031 124.96875 101.386719 124.96875 " fill-opacity="1" fill-rule="nonzero"/><path fill="#ffffff" d="M 273.636719 13.792969 C 246.789062 13.792969 224.941406 35.636719 224.941406 62.496094 C 224.941406 89.34375 246.789062 111.1875 273.636719 111.1875 C 300.484375 111.1875 322.332031 89.34375 322.332031 62.496094 C 322.332031 35.636719 300.484375 13.792969 273.636719 13.792969 Z M 273.636719 124.96875 C 239.183594 124.96875 211.15625 96.949219 211.15625 62.496094 C 211.15625 28.042969 239.183594 0.0117188 273.636719 0.0117188 C 308.089844 0.0117188 336.113281 28.042969 336.113281 62.496094 C 336.113281 96.949219 308.089844 124.96875 273.636719 124.96875 " fill-opacity="1" fill-rule="nonzero"/><g clip-path="url(#1eaa1ebb32)"><path fill="#ffffff" d="M 187.34375 280.527344 C 12.835938 280.527344 3.039062 208.675781 2.707031 205.621094 C 2.667969 153.214844 44.699219 111.1875 96.355469 111.1875 C 111.71875 111.1875 126.964844 114.996094 140.4375 122.179688 C 143.792969 123.984375 145.066406 128.160156 143.269531 131.507812 C 141.480469 134.871094 137.292969 136.140625 133.949219 134.347656 C 122.464844 128.210938 109.464844 124.96875 96.355469 124.96875 C 52.292969 124.96875 16.449219 160.820312 16.449219 204.882812 C 16.515625 204.882812 27.027344 266.75 187.34375 266.75 C 191.152344 266.75 194.234375 269.828125 194.234375 273.636719 C 194.234375 277.445312 191.152344 280.527344 187.34375 280.527344 " fill-opacity="1" fill-rule="nonzero"/></g><g clip-path="url(#89d1e18653)"><path fill="#ffffff" d="M 187.679688 280.527344 C 183.871094 280.527344 180.789062 277.445312 180.789062 273.636719 C 180.789062 269.828125 183.871094 266.75 187.679688 266.75 C 348.265625 266.75 358.542969 204.679688 358.628906 204.046875 C 358.574219 160.820312 322.722656 124.96875 278.664062 124.96875 C 265.5625 124.96875 252.5625 128.210938 241.074219 134.347656 C 237.722656 136.140625 233.539062 134.871094 231.757812 131.507812 C 229.960938 128.160156 231.230469 123.984375 234.585938 122.179688 C 248.058594 114.996094 263.300781 111.1875 278.664062 111.1875 C 330.328125 111.1875 372.355469 153.214844 372.355469 204.882812 C 371.984375 208.675781 362.191406 280.527344 187.679688 280.527344 " fill-opacity="1" fill-rule="nonzero"/></g><path fill="#ffffff" d="M 187.679688 131.445312 C 170.785156 131.445312 157.304688 144.910156 157.304688 161.480469 C 157.304688 178.046875 170.785156 191.519531 187.34375 191.519531 L 187.679688 191.519531 C 204.242188 191.519531 217.71875 178.046875 217.71875 161.480469 C 217.71875 144.910156 204.242188 131.445312 187.679688 131.445312 Z M 187.679688 205.300781 L 187.34375 205.300781 C 163.179688 205.300781 143.523438 185.636719 143.523438 161.480469 C 143.523438 137.324219 163.179688 117.660156 187.34375 117.660156 C 211.84375 117.660156 231.5 137.324219 231.5 161.480469 C 231.5 185.636719 211.84375 205.300781 187.679688 205.300781 " fill-opacity="1" fill-rule="nonzero"/><path fill="#ffffff" d="M 261.769531 275.050781 C 258.171875 275.050781 255.144531 272.261719 254.894531 268.632812 C 252.492188 233.519531 222.992188 206.011719 187.734375 206.011719 C 152.03125 206.011719 122.53125 233.519531 120.128906 268.632812 C 119.871094 272.425781 116.675781 275.5625 112.78125 275.035156 C 108.984375 274.765625 106.121094 271.484375 106.375 267.6875 C 109.273438 225.375 144.816406 192.230469 187.289062 192.230469 C 230.210938 192.230469 265.75 225.375 268.648438 267.6875 C 268.90625 271.484375 266.039062 274.765625 262.246094 275.035156 C 262.082031 275.050781 261.917969 275.050781 261.769531 275.050781 " fill-opacity="1" fill-rule="nonzero"/></svg>