<svg xmlns="http://www.w3.org/2000/svg" xmlns:xlink="http://www.w3.org/1999/xlink" width="500" zoomAndPan="magnify" viewBox="0 0 375 374.999991" height="500" preserveAspectRatio="xMidYMid meet" version="1.0"><defs><g/><clipPath id="93e3b3c41b"><path d="M 187.5 0 C 83.945312 0 0 83.945312 0 187.5 C 0 291.054688 83.945312 375 187.5 375 C 291.054688 375 375 291.054688 375 187.5 C 375 83.945312 291.054688 0 187.5 0 Z M 187.5 0 " clip-rule="nonzero"/></clipPath></defs><g clip-path="url(#93e3b3c41b)"><path stroke-linecap="butt" transform="matrix(0.75, 0, 0, 0.75, 0.0000045, 0.000000000000127898)" fill="none" stroke-linejoin="miter" d="M 249.999994 -0.00000000000017053 C 111.927078 -0.00000000000017053 -0.000006 111.927084 -0.000006 250 C -0.000006 388.072917 111.927078 500.000001 249.999994 500.000001 C 388.072911 500.000001 499.999995 388.072917 499.999995 250 C 499.999995 111.927084 388.072911 -0.00000000000017053 249.999994 -0.00000000000017053 Z M 249.999994 -0.00000000000017053 " stroke="#ffffff" stroke-width="32" stroke-opacity="1" stroke-miterlimit="4"/></g><g fill="#ffffff" fill-opacity="1"><g transform="translate(76.074612, 229.499985)"><g><path d="M 86.234375 -92.671875 L 86.234375 0 L 75.734375 0 L 75.734375 -41.296875 L 21.84375 -41.296875 L 21.84375 0 L 11.34375 0 L 11.34375 -92.671875 L 21.84375 -92.671875 L 21.84375 -51.515625 L 75.734375 -51.515625 L 75.734375 -92.671875 Z M 86.234375 -92.671875 "/></g></g></g><g fill="#ffffff" fill-opacity="1"><g transform="translate(164.953933, 229.499985)"><g/></g></g><g fill="#ffffff" fill-opacity="1"><g transform="translate(186.088388, 229.499985)"><g><path d="M 101.484375 -92.671875 L 101.484375 0 L 90.984375 0 L 90.984375 -76.71875 L 56.6875 -32.609375 L 21.84375 -76.71875 L 21.84375 0 L 11.34375 0 L 11.34375 -92.671875 L 23.515625 -92.671875 L 56.6875 -48.71875 L 89.3125 -92.671875 Z M 101.484375 -92.671875 "/></g></g></g></svg>