<svg xmlns="http://www.w3.org/2000/svg" xmlns:xlink="http://www.w3.org/1999/xlink" width="500" zoomAndPan="magnify" viewBox="0 0 375 281.25" height="375" preserveAspectRatio="xMidYMid meet" version="1.0"><defs><g/><clipPath id="94ac606eea"><path d="M 0.0742188 4 L 2 4 L 2 5 L 0.0742188 5 Z M 0.0742188 4 " clip-rule="nonzero"/></clipPath><clipPath id="dfde6b1180"><path d="M 2 2 L 3.664062 2 L 3.664062 5 L 2 5 Z M 2 2 " clip-rule="nonzero"/></clipPath><clipPath id="c0cb0c562b"><rect x="0" width="4" y="0" height="6"/></clipPath><clipPath id="32591b1213"><path d="M 0.5 233 L 198 233 L 198 273.535156 L 0.5 273.535156 Z M 0.5 233 " clip-rule="nonzero"/></clipPath><clipPath id="fbd94b0edc"><path d="M 62 8 L 374.5 8 L 374.5 260 L 62 260 Z M 62 8 " clip-rule="nonzero"/></clipPath></defs><g transform="matrix(1, 0, 0, 1, 190, 264)"><g clip-path="url(#c0cb0c562b)"><g clip-path="url(#94ac606eea)"><g fill="#ffffff" fill-opacity="1"><g transform="translate(0.156755, 4.210472)"><g/></g><g transform="translate(1.019043, 4.210472)"><g/></g></g></g><g clip-path="url(#dfde6b1180)"><g fill="#ffffff" fill-opacity="1"><g transform="translate(1.88133, 4.210472)"><g><path d="M 1.421875 -0.484375 C 1.421875 -0.316406 1.359375 -0.1875 1.234375 -0.09375 C 1.117188 -0.0078125 0.945312 0.03125 0.71875 0.03125 C 0.488281 0.03125 0.304688 -0.00390625 0.171875 -0.078125 L 0.171875 -0.328125 C 0.253906 -0.285156 0.34375 -0.25 0.4375 -0.21875 C 0.539062 -0.195312 0.640625 -0.1875 0.734375 -0.1875 C 0.867188 -0.1875 0.972656 -0.207031 1.046875 -0.25 C 1.128906 -0.300781 1.171875 -0.375 1.171875 -0.46875 C 1.171875 -0.53125 1.140625 -0.585938 1.078125 -0.640625 C 1.015625 -0.691406 0.898438 -0.75 0.734375 -0.8125 C 0.566406 -0.875 0.445312 -0.925781 0.375 -0.96875 C 0.300781 -1.019531 0.25 -1.070312 0.21875 -1.125 C 0.1875 -1.1875 0.171875 -1.257812 0.171875 -1.34375 C 0.171875 -1.476562 0.226562 -1.585938 0.34375 -1.671875 C 0.46875 -1.765625 0.628906 -1.8125 0.828125 -1.8125 C 1.023438 -1.8125 1.210938 -1.769531 1.390625 -1.6875 L 1.296875 -1.46875 C 1.117188 -1.539062 0.957031 -1.578125 0.8125 -1.578125 C 0.6875 -1.578125 0.585938 -1.554688 0.515625 -1.515625 C 0.453125 -1.472656 0.421875 -1.421875 0.421875 -1.359375 C 0.421875 -1.304688 0.429688 -1.265625 0.453125 -1.234375 C 0.484375 -1.203125 0.523438 -1.171875 0.578125 -1.140625 C 0.628906 -1.109375 0.734375 -1.0625 0.890625 -1 C 1.097656 -0.925781 1.238281 -0.847656 1.3125 -0.765625 C 1.382812 -0.691406 1.421875 -0.597656 1.421875 -0.484375 Z M 1.421875 -0.484375 "/></g></g></g></g></g></g><g clip-path="url(#32591b1213)"><path fill="#ffffff" d="M 3.476562 266.84375 L 5.660156 266.84375 L 5.660156 249.660156 C 5.660156 246.449219 8.273438 243.832031 11.488281 243.832031 L 19.175781 243.832031 L 19.175781 238.5625 C 19.175781 235.6875 21.511719 233.347656 24.386719 233.347656 L 174.757812 233.347656 C 177.632812 233.347656 179.972656 235.6875 179.972656 238.5625 L 179.972656 243.832031 L 187.660156 243.832031 C 190.871094 243.832031 193.488281 246.449219 193.488281 249.660156 L 193.488281 266.84375 L 194.125 266.84375 C 195.765625 266.84375 197.101562 268.179688 197.101562 269.820312 L 197.101562 270.445312 C 197.101562 271.953125 195.875 273.179688 194.367188 273.179688 L 3.234375 273.179688 C 1.726562 273.179688 0.5 271.953125 0.5 270.445312 L 0.5 269.820312 C 0.5 268.179688 1.835938 266.84375 3.476562 266.84375 Z M 177.941406 238.5625 C 177.941406 236.804688 176.515625 235.375 174.757812 235.375 L 24.386719 235.375 C 22.632812 235.375 21.203125 236.804688 21.203125 238.5625 L 21.199219 243.859375 L 177.941406 243.789062 Z M 191.457031 249.660156 C 191.457031 247.566406 189.753906 245.859375 187.660156 245.859375 L 11.488281 245.859375 C 9.390625 245.859375 7.6875 247.566406 7.6875 249.660156 L 7.6875 266.816406 L 191.457031 266.816406 Z M 2.527344 270.445312 C 2.527344 270.835938 2.84375 271.152344 3.234375 271.152344 L 194.367188 271.152344 C 194.757812 271.152344 195.074219 270.835938 195.074219 270.445312 L 195.074219 269.820312 C 195.074219 269.296875 194.648438 268.871094 194.125 268.871094 L 3.476562 268.871094 C 2.953125 268.871094 2.527344 269.296875 2.527344 269.820312 Z M 2.527344 270.445312 " fill-opacity="1" fill-rule="nonzero"/></g><g clip-path="url(#fbd94b0edc)"><path fill="#ffffff" d="M 177.675781 146.042969 L 169.792969 140.671875 L 166.75 145.128906 L 160.445312 154.386719 C 159.378906 155.949219 157.796875 157.105469 155.984375 157.640625 C 154.242188 158.160156 152.359375 158.082031 150.671875 157.429688 C 150.65625 157.671875 150.636719 157.914062 150.617188 158.15625 C 149.929688 166.351562 147.964844 173.488281 145.21875 177.742188 C 145.179688 177.804688 144.164062 179.203125 143.648438 179.742188 C 141.339844 182.148438 138.328125 183.351562 134.542969 183.351562 C 131.390625 183.351562 127.703125 182.515625 123.445312 180.847656 C 114.484375 177.332031 104.054688 170.578125 95.03125 164.429688 C 86.117188 158.359375 76.132812 151.210938 69.6875 144.253906 C 63.015625 137.050781 60.832031 130.773438 63.023438 125.066406 C 63.289062 124.371094 63.757812 123.464844 64.050781 122.953125 C 64.09375 122.878906 64.183594 122.734375 64.230469 122.660156 C 66.847656 118.46875 72.726562 113.941406 80.359375 110.238281 C 80.574219 110.132812 80.792969 110.023438 81.019531 109.917969 C 78.582031 107.121094 78.316406 102.976562 80.425781 99.875 L 122.347656 38.335938 C 124.363281 35.382812 128.070312 34.089844 131.441406 35.0625 C 131.734375 35.148438 132.324219 35.375 132.332031 35.378906 C 132.359375 35.113281 132.386719 34.851562 132.414062 34.597656 C 133.332031 26.125 135.421875 18.570312 138.003906 14.375 C 138.023438 14.34375 138.902344 13.046875 139.363281 12.519531 C 143.496094 7.8125 150.109375 7.316406 159.574219 11.007812 C 168.507812 14.492188 179.085938 21.34375 188.25 27.589844 C 197.933594 34.183594 207.746094 41.199219 213.929688 47.8125 C 217.171875 51.28125 219.28125 54.453125 220.378906 57.507812 C 221.601562 60.90625 221.535156 64.1875 220.183594 67.261719 C 219.894531 67.929688 219.527344 68.609375 219.101562 69.28125 C 219.078125 69.320312 218.421875 70.277344 218.054688 70.738281 C 215.03125 74.519531 209.375 78.785156 202.507812 82.410156 C 202.257812 82.542969 202.007812 82.675781 201.761719 82.800781 C 201.976562 83.054688 202.1875 83.316406 202.335938 83.53125 C 203.269531 84.882812 203.773438 86.472656 203.792969 88.121094 C 203.8125 89.8125 203.320312 91.445312 202.367188 92.847656 L 196.035156 102.140625 L 193.570312 105.765625 L 201.453125 111.136719 C 203.046875 112.222656 203.460938 114.398438 202.375 115.988281 L 200.515625 118.726562 L 201.367188 119.289062 L 361.085938 225.253906 L 368.753906 230.339844 C 368.757812 230.34375 368.761719 230.347656 368.761719 230.347656 C 369.042969 230.539062 369.304688 230.734375 369.542969 230.925781 C 371.964844 232.867188 373.558594 235.632812 374.027344 238.710938 C 374.496094 241.808594 373.785156 244.9375 372.023438 247.527344 L 367.503906 254.160156 C 365.738281 256.75 363.082031 258.5625 360.027344 259.253906 C 359.113281 259.460938 358.191406 259.5625 357.273438 259.5625 C 355.132812 259.5625 353.019531 259.007812 351.132812 257.921875 C 350.859375 257.765625 350.589844 257.597656 350.324219 257.414062 C 350.320312 257.414062 350.316406 257.410156 350.316406 257.410156 L 342.765625 252.128906 L 185.683594 142.28125 L 184.859375 141.703125 L 182.53125 145.121094 C 181.445312 146.714844 179.269531 147.125 177.675781 146.042969 Z M 64.917969 125.792969 C 63.03125 130.707031 65.078125 136.292969 71.175781 142.875 C 77.484375 149.683594 87.351562 156.746094 96.171875 162.753906 C 104.578125 168.480469 115.359375 175.5 124.183594 178.957031 C 128.195312 180.53125 131.621094 181.316406 134.503906 181.316406 C 137.734375 181.316406 140.28125 180.324219 142.183594 178.339844 C 142.472656 178.039062 142.75 177.707031 143.015625 177.355469 C 125.347656 170.460938 81.542969 140.71875 65.410156 124.691406 C 65.21875 125.0625 65.054688 125.429688 64.917969 125.792969 Z M 66.507812 122.917969 C 73.617188 130.09375 87.816406 141.21875 104 152.277344 C 120.949219 163.859375 135.886719 172.554688 144.113281 175.632812 C 146.34375 171.589844 148 165.121094 148.597656 157.988281 C 148.636719 157.511719 148.667969 157.03125 148.699219 156.550781 C 131.734375 148.964844 96.472656 125.035156 82.496094 111.464844 C 82.054688 111.667969 81.644531 111.867188 81.246094 112.058594 C 74.558594 115.304688 69.144531 119.308594 66.507812 122.917969 Z M 83.519531 98.9375 L 82.101562 101.019531 C 80.558594 103.285156 80.703125 106.292969 82.386719 108.390625 C 82.515625 108.554688 85.097656 111.167969 85.839844 111.84375 C 92.734375 118.125 104.015625 126.730469 116.652344 135.285156 C 129.148438 143.742188 140.417969 150.457031 148.101562 154.074219 C 148.550781 154.285156 151.011719 155.382812 151.320312 155.503906 C 154.003906 156.589844 157.136719 155.640625 158.769531 153.242188 L 160.121094 151.257812 C 142.4375 144.335938 98.546875 114.390625 83.519531 98.9375 Z M 86.765625 94.171875 L 84.671875 97.246094 C 91.386719 104.234375 105.699219 115.507812 122.09375 126.710938 C 138.617188 138 153.195312 146.5 161.28125 149.554688 L 163.425781 146.410156 C 145.957031 139.675781 102.011719 109.738281 86.765625 94.171875 Z M 217.796875 67.511719 C 217.996094 67.15625 218.171875 66.800781 218.328125 66.449219 C 223.292969 55.128906 206.394531 42.402344 187.109375 29.265625 C 178.035156 23.082031 167.582031 16.304688 158.835938 12.898438 C 150.261719 9.554688 144.390625 9.867188 140.886719 13.859375 C 140.625 14.160156 140.375 14.484375 140.132812 14.828125 C 160.359375 23.425781 204.140625 53.1875 217.796875 67.511719 Z M 216.640625 69.253906 C 210.546875 62.683594 197.230469 52.199219 180.648438 40.941406 C 164.136719 29.726562 148.3125 20.453125 139.09375 16.574219 C 136.953125 20.6875 135.238281 27.359375 134.429688 34.816406 C 134.378906 35.265625 134.335938 35.738281 134.289062 36.222656 C 152.808594 44.867188 187.90625 68.820312 200.273438 81.285156 C 200.671875 81.082031 201.117188 80.855469 201.558594 80.621094 C 208.351562 77.03125 213.867188 72.859375 216.640625 69.253906 Z M 200.691406 91.703125 C 202.125 89.601562 202.113281 86.777344 200.667969 84.683594 C 200.375 84.257812 197.3125 81.179688 196.4375 80.375 C 190.1875 74.621094 180 66.835938 167.84375 58.578125 C 155.355469 50.097656 143.308594 42.859375 134.929688 38.753906 C 134.351562 38.46875 131.957031 37.417969 131.53125 37.242188 C 128.832031 36.117188 125.675781 37.058594 124.027344 39.480469 L 122.703125 41.417969 C 142.601562 49.761719 186.539062 79.652344 199.425781 93.558594 Z M 196.257812 98.210938 L 198.265625 95.261719 C 192.476562 88.863281 179.226562 78.398438 162.648438 67.140625 C 146.234375 55.992188 130.515625 46.804688 121.550781 43.113281 L 119.511719 46.105469 C 139.324219 54.375 183.257812 84.246094 196.257812 98.210938 Z M 195.097656 99.910156 C 189.265625 93.507812 176.0625 83.082031 159.558594 71.871094 C 143.082031 60.679688 127.304688 51.464844 118.355469 47.800781 L 87.921875 92.480469 C 94.695312 99.484375 108.914062 110.664062 125.171875 121.773438 C 141.851562 133.171875 156.550781 141.71875 164.585938 144.703125 L 165.074219 143.988281 Z M 351.46875 255.742188 C 351.691406 255.894531 351.917969 256.035156 352.144531 256.164062 C 356.796875 258.835938 362.808594 257.453125 365.828125 253.019531 L 370.347656 246.386719 C 373.363281 241.957031 372.457031 235.859375 368.269531 232.503906 C 368.074219 232.34375 367.855469 232.183594 367.625 232.027344 L 363.839844 229.515625 L 347.734375 253.132812 Z M 343.925781 250.46875 L 346.09375 251.980469 L 362.167969 228.40625 L 359.964844 226.945312 L 357.265625 225.152344 L 341.273438 248.613281 Z M 186.847656 140.621094 L 339.628906 247.460938 L 355.597656 224.046875 L 200.246094 120.980469 L 199.382812 120.410156 L 186.003906 140.027344 Z M 180.855469 143.980469 L 200.699219 114.847656 C 201.152344 114.179688 200.980469 113.265625 200.3125 112.8125 L 192.453125 107.457031 L 170.957031 139.011719 L 178.816406 144.367188 C 179.484375 144.820312 180.398438 144.648438 180.855469 143.980469 Z M 180.855469 143.980469 " fill-opacity="1" fill-rule="nonzero"/></g></svg>