<svg xmlns="http://www.w3.org/2000/svg" xmlns:xlink="http://www.w3.org/1999/xlink" width="500" zoomAndPan="magnify" viewBox="0 0 375 281.25" height="375" preserveAspectRatio="xMidYMid meet" version="1.0"><defs><g/><clipPath id="9739bdf699"><path d="M 0.0742188 4 L 2 4 L 2 5 L 0.0742188 5 Z M 0.0742188 4 " clip-rule="nonzero"/></clipPath><clipPath id="bcf568cf7b"><path d="M 2 2 L 3.664062 2 L 3.664062 5 L 2 5 Z M 2 2 " clip-rule="nonzero"/></clipPath><clipPath id="0b63641eee"><rect x="0" width="4" y="0" height="6"/></clipPath><clipPath id="0bb9c8c10d"><path d="M 74 11 L 374.5 11 L 374.5 189 L 74 189 Z M 74 11 " clip-rule="nonzero"/></clipPath><clipPath id="8c39353416"><path d="M 0.5 167 L 54 167 L 54 185 L 0.5 185 Z M 0.5 167 " clip-rule="nonzero"/></clipPath></defs><g transform="matrix(1, 0, 0, 1, 190, 264)"><g clip-path="url(#0b63641eee)"><g clip-path="url(#9739bdf699)"><g fill="#ffffff" fill-opacity="1"><g transform="translate(0.156755, 4.210472)"><g/></g><g transform="translate(1.019043, 4.210472)"><g/></g></g></g><g clip-path="url(#bcf568cf7b)"><g fill="#ffffff" fill-opacity="1"><g transform="translate(1.88133, 4.210472)"><g><path d="M 1.421875 -0.484375 C 1.421875 -0.316406 1.359375 -0.1875 1.234375 -0.09375 C 1.117188 -0.0078125 0.945312 0.03125 0.71875 0.03125 C 0.488281 0.03125 0.304688 -0.00390625 0.171875 -0.078125 L 0.171875 -0.328125 C 0.253906 -0.285156 0.34375 -0.25 0.4375 -0.21875 C 0.539062 -0.195312 0.640625 -0.1875 0.734375 -0.1875 C 0.867188 -0.1875 0.972656 -0.207031 1.046875 -0.25 C 1.128906 -0.300781 1.171875 -0.375 1.171875 -0.46875 C 1.171875 -0.53125 1.140625 -0.585938 1.078125 -0.640625 C 1.015625 -0.691406 0.898438 -0.75 0.734375 -0.8125 C 0.566406 -0.875 0.445312 -0.925781 0.375 -0.96875 C 0.300781 -1.019531 0.25 -1.070312 0.21875 -1.125 C 0.1875 -1.1875 0.171875 -1.257812 0.171875 -1.34375 C 0.171875 -1.476562 0.226562 -1.585938 0.34375 -1.671875 C 0.46875 -1.765625 0.628906 -1.8125 0.828125 -1.8125 C 1.023438 -1.8125 1.210938 -1.769531 1.390625 -1.6875 L 1.296875 -1.46875 C 1.117188 -1.539062 0.957031 -1.578125 0.8125 -1.578125 C 0.6875 -1.578125 0.585938 -1.554688 0.515625 -1.515625 C 0.453125 -1.472656 0.421875 -1.421875 0.421875 -1.359375 C 0.421875 -1.304688 0.429688 -1.265625 0.453125 -1.234375 C 0.484375 -1.203125 0.523438 -1.171875 0.578125 -1.140625 C 0.628906 -1.109375 0.734375 -1.0625 0.890625 -1 C 1.097656 -0.925781 1.238281 -0.847656 1.3125 -0.765625 C 1.382812 -0.691406 1.421875 -0.597656 1.421875 -0.484375 Z M 1.421875 -0.484375 "/></g></g></g></g></g></g><path fill="#ffffff" d="M 22.539062 263 L 22.539062 243.320312 C 22.539062 232.398438 31.421875 223.484375 42.371094 223.484375 L 198.820312 223.484375 C 208.765625 223.484375 216.917969 230.847656 218.347656 240.398438 L 39.023438 240.398438 C 35.800781 240.398438 33.183594 243.015625 33.183594 246.238281 C 33.183594 249.464844 35.800781 252.082031 39.023438 252.082031 L 218.652344 252.082031 L 218.652344 263 Z M 198.820312 211.804688 L 42.371094 211.804688 C 25 211.804688 10.855469 225.949219 10.855469 243.320312 L 10.855469 268.839844 C 10.855469 272.066406 13.472656 274.683594 16.699219 274.683594 L 224.492188 274.683594 C 227.71875 274.683594 230.335938 272.066406 230.335938 268.839844 L 230.335938 243.320312 C 230.335938 225.949219 216.1875 211.804688 198.820312 211.804688 " fill-opacity="1" fill-rule="nonzero"/><g clip-path="url(#0bb9c8c10d)"><path fill="#ffffff" d="M 361.992188 172.230469 C 360.804688 175.757812 357 177.703125 353.472656 176.519531 L 215.886719 130.828125 L 220.113281 118.050781 L 357.703125 163.742188 C 361.230469 164.898438 363.148438 168.730469 361.992188 172.230469 Z M 194.925781 109.6875 L 209.039062 114.371094 L 204.78125 127.148438 L 190.699219 122.460938 Z M 172.933594 138.097656 C 172.871094 138.097656 172.8125 138.066406 172.8125 138.066406 L 100.777344 113.761719 L 118.207031 62.382812 L 190.242188 86.6875 L 173.085938 138.035156 C 173.023438 138.066406 172.964844 138.097656 172.933594 138.097656 Z M 104.578125 136.242188 L 107.105469 128.578125 L 159.335938 145.914062 L 156.78125 153.582031 Z M 160.703125 175.667969 L 88.214844 151.605469 L 90.769531 143.9375 L 158.664062 166.511719 L 163.257812 168.03125 Z M 186.4375 64.207031 L 183.914062 71.875 L 131.683594 54.535156 L 134.238281 46.898438 Z M 130.316406 24.785156 L 202.804688 48.847656 L 200.28125 56.511719 L 127.789062 32.421875 Z M 372.058594 161.855469 C 369.839844 157.476562 366.066406 154.191406 361.382812 152.636719 L 198.605469 98.582031 L 201.34375 90.371094 C 203.292969 84.5 200.433594 78.230469 194.957031 75.707031 L 197.542969 67.917969 L 202.136719 69.441406 C 202.742188 69.625 203.382812 69.714844 203.960938 69.714844 C 206.425781 69.714844 208.707031 68.164062 209.527344 65.730469 L 215.734375 46.992188 C 216.21875 45.5 216.128906 43.917969 215.429688 42.519531 C 214.730469 41.152344 213.511719 40.085938 212.050781 39.597656 L 128.460938 11.855469 C 125.386719 10.820312 122.101562 12.496094 121.066406 15.535156 L 114.863281 34.304688 C 114.375 35.765625 114.464844 37.378906 115.164062 38.746094 C 115.867188 40.148438 117.082031 41.179688 118.574219 41.667969 L 123.136719 43.1875 L 120.582031 50.976562 C 117.902344 50.429688 115.164062 50.734375 112.703125 51.949219 C 109.84375 53.410156 107.683594 55.875 106.679688 58.945312 L 89.675781 110.113281 C 88.671875 113.152344 88.914062 116.410156 90.34375 119.296875 C 91.589844 121.730469 93.660156 123.496094 96.125 124.652344 L 93.476562 132.5625 L 88.882812 131.039062 C 85.8125 130.007812 82.527344 131.679688 81.523438 134.722656 L 75.285156 153.488281 C 74.800781 154.949219 74.921875 156.53125 75.621094 157.929688 C 76.289062 159.332031 77.507812 160.363281 78.996094 160.851562 L 162.558594 188.59375 C 163.167969 188.808594 163.808594 188.898438 164.414062 188.898438 C 166.847656 188.898438 169.128906 187.347656 169.953125 184.914062 L 176.1875 166.144531 C 176.675781 164.683594 176.550781 163.074219 175.851562 161.703125 C 175.152344 160.304688 173.9375 159.269531 172.476562 158.78125 L 167.882812 157.261719 L 170.5 149.382812 C 171.289062 149.566406 172.113281 149.777344 172.933594 149.777344 C 174.789062 149.777344 176.613281 149.351562 178.316406 148.5 C 181.207031 147.042969 183.335938 144.578125 184.339844 141.535156 L 186.988281 133.535156 L 349.792969 187.589844 C 351.707031 188.230469 353.65625 188.535156 355.601562 188.535156 C 358.433594 188.535156 361.230469 187.894531 363.847656 186.585938 C 368.226562 184.367188 371.511719 180.59375 373.0625 175.941406 C 374.613281 171.253906 374.25 166.265625 372.058594 161.855469 " fill-opacity="1" fill-rule="nonzero"/></g><path fill="#ffffff" d="M 7.390625 127.847656 L 44.957031 145.976562 C 45.777344 146.371094 46.660156 146.585938 47.511719 146.585938 C 49.671875 146.585938 51.742188 145.367188 52.773438 143.269531 C 54.175781 140.378906 52.957031 136.882812 50.039062 135.480469 L 12.46875 117.351562 C 9.546875 115.921875 6.082031 117.140625 4.679688 120.058594 C 3.28125 122.949219 4.5 126.445312 7.390625 127.847656 " fill-opacity="1" fill-rule="nonzero"/><path fill="#ffffff" d="M 61.871094 116.683594 C 62.996094 118.203125 64.761719 118.996094 66.523438 118.996094 C 67.742188 118.996094 68.988281 118.597656 70.054688 117.808594 C 72.609375 115.859375 73.125 112.210938 71.179688 109.625 L 46.113281 76.589844 C 44.167969 74.003906 40.484375 73.515625 37.929688 75.464844 C 35.34375 77.410156 34.859375 81.0625 36.804688 83.648438 L 61.871094 116.683594 " fill-opacity="1" fill-rule="nonzero"/><g clip-path="url(#8c39353416)"><path fill="#ffffff" d="M 53.324219 173.019531 C 52.925781 169.796875 50.039062 167.484375 46.84375 167.878906 L 5.382812 172.5625 C 2.1875 172.957031 -0.125 175.847656 0.242188 179.042969 C 0.574219 182.023438 3.101562 184.214844 6.050781 184.214844 C 6.261719 184.214844 6.476562 184.214844 6.71875 184.183594 L 48.152344 179.46875 C 51.375 179.101562 53.65625 176.214844 53.324219 173.019531 " fill-opacity="1" fill-rule="nonzero"/></g></svg>